#!OML:ASF C:\ViconDB\ViconDB\414\Spring2016\041811\Spring2016.ASF
:FULLY-SPECIFIED
:DEGREES
226
root 11.3745 17.7313 -3.66653 -181.939 -15.2775 -170.582
lowerback 2.32432 0.58301 -0.395066
upperback 0.903393 0.715068 2.6327
thorax -0.415678 0.32449 2.9046
lowerneck -11.7784 2.48922 -3.09636
upperneck 25.452 -1.96459 16.0109
head 10.2168 -0.161735 5.93581
rclavicle -1.66979e-014 7.15625e-015
rhumerus -93.3208 36.1108 -119.936
rradius 90.8784
rwrist 31.3783
rhand -44.3226 -2.55701
rfingers 7.12502
rthumb -17.1317 -31.8217
lclavicle -1.66979e-014 7.15625e-015
lhumerus -85.9647 -43.8463 120.88
lradius 80.1613
lwrist -31.3134
lhand -45.6478 0.481927
lfingers 7.12502
lthumb -18.4069 29.631
rfemur 182.45 85.744 -127.161
rtibia 36.4276
rfoot -88.033 -55.3107
rtoes 17.2257
lfemur -38.7592 -6.92343 -5.5267
ltibia 50.1992
lfoot -11.7202 -7.09608
ltoes -16.1606
227
root 11.3983 17.7357 -3.78028 -181.845 -15.1217 -170.459
lowerback 2.34672 0.680462 -0.668401
upperback 0.930904 0.839701 2.65561
thorax -0.410995 0.386544 3.07889
lowerneck -11.7689 2.45779 -2.95752
upperneck 25.2586 -2.04751 16.1297
head 10.1585 -0.179577 5.93491
rclavicle -6.63444e-014 -3.97569e-015
rhumerus -93.6595 36.1928 -120.097
rradius 90.8356
rwrist 31.2352
rhand -44.4956 -2.26063
rfingers 7.12502
rthumb -17.2982 -31.5108
lclavicle -6.63444e-014 -3.97569e-015
lhumerus -85.6979 -43.8153 120.802
lradius 80.22
lwrist -31.2817
lhand -45.4184 0.239086
lfingers 7.12502
lthumb -18.1862 29.4089
rfemur 181.131 86.2424 -128.19
rtibia 36.2345
rfoot -88.7519 -55.1162
rtoes 17.7675
lfemur -39.3013 -7.10684 -5.70375
ltibia 48.4503
lfoot -11.0427 -8.1822
ltoes -16.5297
228
root 11.4212 17.7241 -3.89864 -181.805 -15.0761 -170.238
lowerback 2.41318 0.767186 -0.84188
upperback 0.939823 0.951367 2.7003
thorax -0.449197 0.442129 3.21907
lowerneck -11.9066 2.4266 -2.73862
upperneck 25.1689 -2.16748 16.232
head 10.1731 -0.201775 5.91846
rclavicle -1.28713e-014 1.35174e-014
rhumerus -93.9989 36.1751 -120.246
rradius 90.8675
rwrist 31.1586
rhand -44.7112 -2.655
rfingers 7.12502
rthumb -17.5057 -31.8868
lclavicle -1.28713e-014 1.35174e-014
lhumerus -85.5024 -43.8083 120.854
lradius 80.1072
lwrist -31.4113
lhand -45.4941 -0.0449284
lfingers 7.12502
lthumb -18.259 29.1181
rfemur 179.208 86.865 -129.656
rtibia 36.0292
rfoot -89.4593 -55.5988
rtoes 20.4089
lfemur -39.8469 -7.09881 -5.89544
ltibia 46.8448
lfoot -10.1983 -9.28496
ltoes -16.4018
229
root 11.4481 17.7274 -4.01444 -181.713 -15.078 -170.007
lowerback 2.43125 0.815003 -0.960179
upperback 0.93399 1.01401 2.69452
thorax -0.47115 0.47422 3.27776
lowerneck -11.924 2.42411 -2.52174
upperneck 25.0084 -2.24535 16.368
head 10.1329 -0.21001 5.91256
rclavicle -1.7344e-014 7.95139e-016
rhumerus -94.2317 36.1401 -120.477
rradius 90.9039
rwrist 30.6879
rhand -45.0154 -2.75166
rfingers 7.12502
rthumb -17.7984 -31.9571
lclavicle -1.7344e-014 7.95139e-016
lhumerus -85.4169 -43.8894 120.826
lradius 80.1319
lwrist -31.5854
lhand -45.4753 0.256525
lfingers 7.12502
lthumb -18.241 29.4212
rfemur 177.89 87.4111 -130.64
rtibia 35.7954
rfoot -90.6729 -55.0484
rtoes 19.0854
lfemur -40.3924 -7.06093 -6.08816
ltibia 45.3588
lfoot -9.23199 -10.2236
ltoes -16.4078
230
root 11.4739 17.7298 -4.13223 -181.634 -15.082 -169.89
lowerback 2.51021 0.858348 -1.27088
upperback 0.90611 1.06676 2.74172
thorax -0.553903 0.502107 3.49924
lowerneck -11.9525 2.3799 -2.5692
upperneck 24.8891 -2.37635 16.6604
head 10.1163 -0.253611 6.0095
rclavicle 7.41964e-014 -2.14687e-014
rhumerus -94.5705 36.1615 -120.58
rradius 90.9368
rwrist 30.5431
rhand -45.1799 -3.04911
rfingers 7.12502
rthumb -17.9568 -32.2401
lclavicle 7.41964e-014 -2.14687e-014
lhumerus -85.2827 -43.7793 120.888
lradius 80.019
lwrist -31.6723
lhand -45.2531 0.149037
lfingers 7.12502
lthumb -18.0272 29.3336
rfemur 173.05 87.7921 -135.242
rtibia 35.5697
rfoot -91.3411 -54.7732
rtoes 19.3252
lfemur -40.803 -7.09833 -6.4276
ltibia 43.9882
lfoot -8.23686 -10.9186
ltoes -16.3097
231
root 11.4968 17.7255 -4.25111 -181.589 -15.1638 -169.504
lowerback 2.44021 0.87856 -1.22125
upperback 0.927038 1.09235 2.78947
thorax -0.495045 0.512908 3.52093
lowerneck -11.9928 2.34657 -2.47318
upperneck 24.7569 -2.48451 16.8326
head 10.0946 -0.282868 6.03771
rclavicle 2.80783e-014 -2.8625e-014
rhumerus -94.716 36.1725 -120.621
rradius 90.9906
rwrist 30.3543
rhand -45.3091 -2.76393
rfingers 7.12502
rthumb -18.0811 -31.9435
lclavicle 2.80783e-014 -2.8625e-014
lhumerus -85.1249 -43.8687 120.907
lradius 79.9086
lwrist -31.7878
lhand -45.1065 0.0965231
lfingers 7.12502
lthumb -17.8862 29.294
rfemur 168.775 88.3625 -139.024
rtibia 35.3401
rfoot -92.2597 -54.6815
rtoes 19.8519
lfemur -41.2673 -6.97953 -6.5906
ltibia 42.7828
lfoot -7.48745 -11.3454
ltoes -16.453
232
root 11.5213 17.7287 -4.36968 -181.547 -15.2566 -169.17
lowerback 2.47855 0.873911 -1.33098
upperback 0.904098 1.08164 2.90035
thorax -0.543459 0.506913 3.69746
lowerneck -12.0317 2.32369 -2.36027
upperneck 24.6456 -2.55061 16.9066
head 10.0734 -0.297942 6.03212
rclavicle 2.5842e-015 -3.97569e-015
rhumerus -94.85 36.2573 -120.572
rradius 91.0459
rwrist 30.0321
rhand -45.2396 -2.50668
rfingers 7.12502
rthumb -18.0142 -31.6924
lclavicle 2.5842e-015 -3.97569e-015
lhumerus -85.043 -43.771 121
lradius 79.8202
lwrist -31.875
lhand -45.1501 0.337392
lfingers 7.12502
lthumb -17.9281 29.5311
rfemur 159.384 88.7959 -148.005
rtibia 35.1187
rfoot -92.8069 -53.8798
rtoes 18.2172
lfemur -41.6455 -6.97472 -6.78832
ltibia 41.6888
lfoot -6.88362 -11.5973
ltoes -16.5159
